<svg width="303" height="83" viewBox="0 0 303 83" fill="none" xmlns="http://www.w3.org/2000/svg">
<path d="M2 60L94.8442 18.7879L120.801 0L149.752 18.7879L160.234 12.1212L197.173 31.5152L271.049 48.4848L300 60H2Z" fill="url(#paint0_linear_5_55)"/>
<path d="M117 12.5L95.5 19L121 0L144 16L132.5 14L126.5 19L117 12.5Z" fill="#1F1D1B"/>
<path d="M22.68 35.92V41.4H15.24V64H8.4V41.4H0.96V35.92H22.68ZM40.4328 64L34.5928 53.4H32.9528V64H26.1128V35.92H37.5928C39.8061 35.92 41.6861 36.3067 43.2328 37.08C44.8061 37.8533 45.9795 38.92 46.7528 40.28C47.5261 41.6133 47.9128 43.1067 47.9128 44.76C47.9128 46.6267 47.3795 48.2933 46.3128 49.76C45.2728 51.2267 43.7261 52.2667 41.6728 52.88L48.1528 64H40.4328ZM32.9528 48.56H37.1928C38.4461 48.56 39.3795 48.2533 39.9928 47.64C40.6328 47.0267 40.9528 46.16 40.9528 45.04C40.9528 43.9733 40.6328 43.1333 39.9928 42.52C39.3795 41.9067 38.4461 41.6 37.1928 41.6H32.9528V48.56ZM69.6866 59.04H59.2066L57.5266 64H50.3666L60.5266 35.92H68.4466L78.6066 64H71.3666L69.6866 59.04ZM67.9266 53.76L64.4466 43.48L61.0066 53.76H67.9266ZM88.5388 35.92V64H81.6988V35.92H88.5388ZM100.336 58.72H109.296V64H93.4956V35.92H100.336V58.72ZM130.238 64L123.23 51.28H121.262V64H113.054V30.304H126.83C129.486 30.304 131.742 30.768 133.598 31.696C135.486 32.624 136.894 33.904 137.822 35.536C138.75 37.136 139.214 38.928 139.214 40.912C139.214 43.152 138.574 45.152 137.294 46.912C136.046 48.672 134.19 49.92 131.726 50.656L139.502 64H130.238ZM121.262 45.472H126.35C127.854 45.472 128.974 45.104 129.71 44.368C130.478 43.632 130.862 42.592 130.862 41.248C130.862 39.968 130.478 38.96 129.71 38.224C128.974 37.488 127.854 37.12 126.35 37.12H121.262V45.472ZM150.591 35.92V52.72C150.591 54.4 151.004 55.6933 151.831 56.6C152.657 57.5067 153.871 57.96 155.471 57.96C157.071 57.96 158.297 57.5067 159.151 56.6C160.004 55.6933 160.431 54.4 160.431 52.72V35.92H167.271V52.68C167.271 55.1867 166.737 57.3067 165.671 59.04C164.604 60.7733 163.164 62.08 161.351 62.96C159.564 63.84 157.564 64.28 155.351 64.28C153.137 64.28 151.151 63.8533 149.391 63C147.657 62.12 146.284 60.8133 145.271 59.08C144.257 57.32 143.751 55.1867 143.751 52.68V35.92H150.591ZM197.194 64H190.354L178.914 46.68V64H172.074V35.92H178.914L190.354 53.32V35.92H197.194V64ZM227.272 64H220.432L208.992 46.68V64H202.152V35.92H208.992L220.432 53.32V35.92H227.272V64ZM239.07 41.4V47.08H248.23V52.36H239.07V58.52H249.43V64H232.23V35.92H249.43V41.4H239.07ZM268.191 64L262.351 53.4H260.711V64H253.871V35.92H265.351C267.564 35.92 269.444 36.3067 270.991 37.08C272.564 37.8533 273.737 38.92 274.511 40.28C275.284 41.6133 275.671 43.1067 275.671 44.76C275.671 46.6267 275.137 48.2933 274.071 49.76C273.031 51.2267 271.484 52.2667 269.431 52.88L275.911 64H268.191ZM260.711 48.56H264.951C266.204 48.56 267.137 48.2533 267.751 47.64C268.391 47.0267 268.711 46.16 268.711 45.04C268.711 43.9733 268.391 43.1333 267.751 42.52C267.137 41.9067 266.204 41.6 264.951 41.6H260.711V48.56ZM290.124 64.28C288.071 64.28 286.231 63.9467 284.604 63.28C282.978 62.6133 281.671 61.6267 280.684 60.32C279.724 59.0133 279.218 57.44 279.164 55.6H286.444C286.551 56.64 286.911 57.44 287.524 58C288.138 58.5333 288.938 58.8 289.924 58.8C290.938 58.8 291.738 58.5733 292.324 58.12C292.911 57.64 293.204 56.9867 293.204 56.16C293.204 55.4667 292.964 54.8933 292.484 54.44C292.031 53.9867 291.458 53.6133 290.764 53.32C290.098 53.0267 289.138 52.6933 287.884 52.32C286.071 51.76 284.591 51.2 283.444 50.64C282.298 50.08 281.311 49.2533 280.484 48.16C279.658 47.0667 279.244 45.64 279.244 43.88C279.244 41.2667 280.191 39.2267 282.084 37.76C283.978 36.2667 286.444 35.52 289.484 35.52C292.578 35.52 295.071 36.2667 296.964 37.76C298.858 39.2267 299.871 41.28 300.004 43.92H292.604C292.551 43.0133 292.218 42.3067 291.604 41.8C290.991 41.2667 290.204 41 289.244 41C288.418 41 287.751 41.2267 287.244 41.68C286.738 42.1067 286.484 42.7333 286.484 43.56C286.484 44.4667 286.911 45.1733 287.764 45.68C288.618 46.1867 289.951 46.7333 291.764 47.32C293.578 47.9333 295.044 48.52 296.164 49.08C297.311 49.64 298.298 50.4533 299.124 51.52C299.951 52.5867 300.364 53.96 300.364 55.64C300.364 57.24 299.951 58.6933 299.124 60C298.324 61.3067 297.151 62.3467 295.604 63.12C294.058 63.8933 292.231 64.28 290.124 64.28Z" fill="white"/>
<defs>
<linearGradient id="paint0_linear_5_55" x1="150.844" y1="-3.11348e-08" x2="151.156" y2="60" gradientUnits="userSpaceOnUse">
<stop offset="0.927885" stop-color="#1B1918"/>
<stop offset="1" stop-color="#1B1918" stop-opacity="0"/>
</linearGradient>
</defs>
</svg>
